<svg width="256" height="256" viewBox="0 0 256 256" fill="none" xmlns="http://www.w3.org/2000/svg">
  <rect width="256" height="256" rx="56" fill="#181B22"/>
  <rect x="44" y="62" width="112" height="28" rx="14" fill="#FF5C5C"/>
  <rect x="44" y="103" width="96" height="28" rx="14" fill="#FF8A8A"/>
  <rect x="44" y="144" width="84" height="28" rx="14" fill="#FFC1C1"/>
  <path d="M175.61 81.36c-16.52 16.52-16.52 43.31 0 59.83l-36.42 36.42c-6.43 6.43-6.43 16.85 0 23.28 6.43 6.43 16.85 6.43 23.28 0l36.42-36.42c16.52 16.52 43.31 16.52 59.83 0 13.2-13.2 15.91-33.17 8.13-49.02l-21.22 21.22-17.12-2.99-2.99-17.12 21.22-21.22c-15.85-7.78-35.82-5.07-49.12 8.03Z" fill="#F4F4F5"/>
</svg>
